<svg width="36" height="29" viewBox="0 0 36 29" fill="none" xmlns="http://www.w3.org/2000/svg">
<path d="M30.4705 2.43137C28.1409 1.30458 25.6599 0.474315 23.0462 -0.00012207C22.7242 0.592924 22.3455 1.40342 22.0992 2.05577C19.3341 1.62087 16.5879 1.62087 13.8795 2.05577C13.6144 1.40342 13.2356 0.592924 12.9136 -0.00012207C10.3 0.474315 7.8189 1.30458 5.48934 2.43137C0.79235 9.82468 -0.476595 17.0401 0.148408 24.1369C3.27342 26.5684 6.2848 28.0313 9.25829 28.9999C9.99693 27.9522 10.6409 26.8254 11.2091 25.6591C10.1295 25.2439 9.10678 24.7102 8.14087 24.0974C8.40602 23.8997 8.65223 23.6823 8.89844 23.4846C14.8265 26.3707 21.247 26.3707 27.0993 23.4846C27.3455 23.702 27.5917 23.8997 27.8568 24.0974C26.8909 24.7102 25.8493 25.2242 24.7886 25.6591C25.3568 26.8254 26.0008 27.9522 26.7394 28.9999C29.7129 28.0313 32.7432 26.5684 35.8493 24.1369C36.5879 15.8936 34.5804 8.7572 30.5084 2.43137H30.4705ZM12.0045 19.7879C10.2242 19.7879 8.76587 18.0681 8.76587 15.9529C8.76587 13.8377 10.1863 12.1179 12.0045 12.1179C13.8227 12.1179 15.2621 13.8377 15.2432 15.9529C15.2432 18.0483 13.8227 19.7879 12.0045 19.7879ZM23.9553 19.7879C22.175 19.7879 20.7167 18.0681 20.7167 15.9529C20.7167 13.8377 22.1371 12.1179 23.9553 12.1179C25.7735 12.1179 27.2129 13.8377 27.194 15.9529C27.194 18.0483 25.7735 19.7879 23.9553 19.7879Z" fill="#00D094"/>
</svg>
