<svg width="30" height="30" viewBox="0 0 30 30" fill="none" xmlns="http://www.w3.org/2000/svg">
<path fill-rule="evenodd" clip-rule="evenodd" d="M21.6667 -6.10352e-05H8.33333C3.73097 -6.10352e-05 0 3.73091 0 8.33328V21.6666C0 26.269 3.73097 30 8.33333 30H21.6667C26.269 30 30 26.269 30 21.6666V8.33328C30 3.73091 26.269 -6.10352e-05 21.6667 -6.10352e-05ZM27.0833 21.6666C27.0742 24.6543 24.6543 27.0742 21.6667 27.0833H8.33333C5.34558 27.0742 2.92582 24.6543 2.91667 21.6666V8.33328C2.92582 5.34553 5.34558 2.92576 8.33333 2.91661H21.6667C24.6543 2.92576 27.0742 5.34553 27.0833 8.33328V21.6666ZM22.9167 8.74995C23.8372 8.74995 24.5833 8.00375 24.5833 7.08328C24.5833 6.16281 23.8372 5.41661 22.9167 5.41661C21.9962 5.41661 21.25 6.16281 21.25 7.08328C21.25 8.00375 21.9962 8.74995 22.9167 8.74995ZM15 7.49995C10.8579 7.49995 7.5 10.8578 7.5 14.9999C7.5 19.1421 10.8579 22.5 15 22.5C19.1422 22.5 22.5 19.1421 22.5 14.9999C22.5045 13.0094 21.7157 11.0992 20.3082 9.69175C18.9007 8.28426 16.9905 7.49551 15 7.49995ZM10.4167 14.9999C10.4167 17.5313 12.4687 19.5833 15 19.5833C17.5313 19.5833 19.5833 17.5313 19.5833 14.9999C19.5833 12.4686 17.5313 10.4166 15 10.4166C12.4687 10.4166 10.4167 12.4686 10.4167 14.9999Z" fill="#00D094"/>
</svg>
