<svg width="43" height="30" viewBox="0 0 43 30" fill="none" xmlns="http://www.w3.org/2000/svg">
<path d="M41.979 4.71657C41.7351 3.81177 41.2585 2.98663 40.5967 2.32327C39.9347 1.65989 39.1106 1.18144 38.2065 0.93552C34.8536 0.0148809 21.4402 -0.000105806 21.4402 -0.000105806C21.4402 -0.000105806 8.02883 -0.0150934 4.67385 0.864866C3.77019 1.1221 2.9478 1.60733 2.28569 2.27394C1.62356 2.94057 1.14393 3.76621 0.892807 4.67161C0.00856946 8.02445 3.13699e-06 14.9785 3.13699e-06 14.9785C3.13699e-06 14.9785 -0.00856097 21.9668 0.869255 25.2853C1.36169 27.1202 2.80688 28.5697 4.64387 29.0643C8.03097 29.9849 21.408 29.9999 21.408 29.9999C21.408 29.9999 34.8215 30.0149 38.1744 29.137C39.079 28.8915 39.9039 28.4142 40.5674 27.7522C41.2309 27.0902 41.7101 26.2664 41.9576 25.3624C42.8439 22.0117 42.8504 15.0598 42.8504 15.0598C42.8504 15.0598 42.8932 8.06941 41.979 4.71657ZM17.1496 21.4208L17.1603 8.57469L28.3085 15.0085L17.1496 21.4208Z" fill="#00D094"/>
</svg>
