<svg width="29" height="30" viewBox="0 0 29 30" fill="none" xmlns="http://www.w3.org/2000/svg">
<path d="M14.9375 0C7.15625 0 0.875 6.28125 0.875 14.0625C0.875 17.25 1.90625 20.25 3.875 22.6875L1.90625 28.6875C1.8125 29.0625 1.90625 29.4375 2.1875 29.7188C2.28125 29.9062 2.5625 30 2.75 30C2.84375 30 3.03125 30 3.125 29.9062L9.59375 27C11.2812 27.75 13.0625 28.125 14.9375 28.125C22.7188 28.125 29 21.8438 29 14.0625C29 6.28125 22.7188 0 14.9375 0ZM23.0938 19.2188C22.7188 20.3438 21.3125 21.2812 20.0938 21.4688C19.8125 21.5625 19.5312 21.5625 19.1562 21.5625C18.4062 21.5625 17.2812 21.375 15.3125 20.5312C13.0625 19.5938 10.8125 17.625 9.03125 15.0938V15C8.46875 14.1562 7.4375 12.5625 7.4375 10.875C7.4375 8.8125 8.46875 7.78125 8.84375 7.3125C9.3125 6.84375 9.96875 6.5625 10.7188 6.5625C10.9062 6.5625 11 6.5625 11.1875 6.5625C11.8438 6.5625 12.3125 6.75 12.7812 7.6875L13.1562 8.4375C13.4375 9.1875 13.8125 10.0312 13.9062 10.125C14.1875 10.6875 14.1875 11.1562 13.9062 11.625C13.8125 11.9062 13.625 12.0938 13.4375 12.2812C13.3438 12.4688 13.25 12.5625 13.1562 12.5625C13.0625 12.6562 13.0625 12.6562 12.9688 12.75C13.25 13.2188 13.8125 14.0625 14.5625 14.7188C15.6875 15.75 16.5313 16.0312 17 16.2188C17.1875 16.0312 17.375 15.6562 17.6562 15.375L17.75 15.1875C18.2188 14.5313 18.9688 14.3438 19.7188 14.625C20.0938 14.8125 22.1562 15.75 22.1562 15.75L22.3438 15.8438C22.625 16.0312 23 16.125 23.1875 16.5C23.5625 17.3438 23.2812 18.5625 23.0938 19.2188Z" fill="#00D094"/>
</svg>
