<svg xmlns="http://www.w3.org/2000/svg" width="130" height="44" viewBox="0 0 130 44" fill="none">
  <path d="M68.8597 32.2441H60.0034L58.151 37.5669H54.0216L62.6583 14.7041H66.2225L74.8738 37.5669H70.7282L68.8597 32.2441ZM61.1193 29.04H67.7454L64.4316 19.5554L61.1193 29.04Z" fill="black"/>
  <path d="M97.8965 29.2454C97.8965 31.8729 97.3005 33.9691 96.1071 35.534C94.9137 37.0989 93.3116 37.8821 91.3026 37.8821C89.439 37.8821 87.9468 37.2701 86.8276 36.0443V43.5441H83.0115V20.5779H86.5288L86.6855 22.3059C87.8063 20.9445 89.3292 20.2646 91.2542 20.2646C93.3262 20.2646 94.9524 21.0366 96.1297 22.5805C97.307 24.1244 97.8965 26.2674 97.8965 29.0112V29.2454ZM94.0965 28.9143C94.0965 27.2186 93.759 25.8734 93.0839 24.8786C92.4089 23.8837 91.4431 23.3863 90.1867 23.3863C88.6267 23.3863 87.5075 24.0307 86.826 25.3178V32.8548C87.5172 34.1742 88.6476 34.8331 90.2174 34.8331C91.4318 34.8331 92.3814 34.3438 93.0678 33.3651C93.7525 32.3881 94.0965 30.9039 94.0965 28.9143Z" fill="black"/>
  <path d="M109.891 37.5672C109.723 37.2426 109.577 36.7145 109.451 35.9813C108.237 37.2474 106.751 37.8805 104.992 37.8805C103.285 37.8805 101.893 37.3944 100.816 36.4206C99.7374 35.4468 99.1996 34.2436 99.1996 32.8096C99.1996 30.9992 99.8714 29.6087 101.217 28.6414C102.562 27.6724 104.485 27.1895 106.987 27.1895H109.327V26.0752C109.327 25.1967 109.081 24.4926 108.589 23.9629C108.096 23.4348 107.349 23.1699 106.344 23.1699C105.475 23.1699 104.763 23.388 104.209 23.8208C103.654 24.2552 103.377 24.8075 103.377 25.4777H99.5613C99.5613 24.5459 99.8698 23.6754 100.488 22.8631C101.105 22.0524 101.947 21.4161 103.008 20.9559C104.07 20.4956 105.256 20.2646 106.564 20.2646C108.553 20.2646 110.139 20.7653 111.321 21.7649C112.504 22.7646 113.111 24.1696 113.143 25.9816V33.6445C113.143 35.1722 113.358 36.3931 113.787 37.3024V37.5688H109.891V37.5672ZM105.698 34.8186C106.452 34.8186 107.161 34.6361 107.827 34.2695C108.49 33.9029 108.991 33.4119 109.325 32.7934V29.591H107.268C105.855 29.591 104.792 29.8364 104.08 30.329C103.368 30.8216 103.012 31.5176 103.012 32.4171C103.012 33.1503 103.256 33.7333 103.742 34.1677C104.23 34.6022 104.883 34.8186 105.698 34.8186Z" fill="black"/>
  <path d="M124.504 24.0627C124.002 23.9787 123.484 23.9367 122.949 23.9367C121.2 23.9367 120.023 24.6069 119.415 25.9473V37.5669H115.599V20.5776H119.243L119.336 22.4768C120.257 21.0007 121.534 20.2627 123.167 20.2627C123.711 20.2627 124.162 20.3354 124.517 20.4823L124.504 24.0627Z" fill="black"/>
  <path d="M129.99 37.5669H126.174V20.5776H129.99V37.5669Z" fill="black"/>
  <path d="M80.5406 14.6475H76.7245V37.5668H80.5406V14.6475Z" fill="black"/>
  <path d="M130 14.6475H126.176V18.4717H130V14.6475Z" fill="black"/>
  <path d="M0 14.7557V21.1154L8.10542 11.5726V5.46167L0 14.7557Z" fill="#00AE1D"/>
  <path d="M8.10547 5.46167L8.10709 11.5726L13.0844 16.7825V10.6747L8.10547 5.46167Z" fill="#00FF27"/>
  <path d="M21.9067 0L13.0842 10.6748V16.7825L21.9067 6.11581V0Z" fill="#00AE1D"/>
  <path d="M43.8135 14.7557V21.1154L35.7064 11.5726V5.46167L43.8135 14.7557Z" fill="#00FF27"/>
  <path d="M35.7065 5.46167L35.7049 11.5726L30.7292 16.7825V10.6747L35.7065 5.46167Z" fill="#00AE1D"/>
  <path d="M21.9069 0L30.7293 10.6748V16.7825L21.9069 6.11581V0Z" fill="#00FF27"/>
  <path d="M0 23.0373V29.3986L8.10542 19.8542V13.7449L0 23.0373Z" fill="#5D00AD"/>
  <path d="M8.10547 13.7449L8.10709 19.8542L13.0844 25.064V18.9563L8.10547 13.7449Z" fill="#7C00FF"/>
  <path d="M21.9067 8.28296L13.0842 18.9561V25.0639L21.9067 14.3988V8.28296Z" fill="#5D00AD"/>
  <path d="M43.8135 23.0373V29.3986L35.7064 19.8542V13.7449L43.8135 23.0373Z" fill="#7C00FF"/>
  <path d="M35.7065 13.7449L35.7049 19.8542L30.7292 25.064V18.9563L35.7065 13.7449Z" fill="#5D00AD"/>
  <path d="M21.9069 8.28296L30.7293 18.9561V25.0639L21.9069 14.3988V8.28296Z" fill="#7C00FF"/>
  <path d="M0 31.3204V37.6801L8.10542 28.1373V22.0264L0 31.3204Z" fill="#AF3F00"/>
  <path d="M8.10547 22.0264L8.10709 28.1373L13.0844 33.3471V27.2394L8.10547 22.0264Z" fill="#FF5400"/>
  <path d="M21.9067 16.5645L13.0842 27.2393V33.347L21.9067 22.6803V16.5645Z" fill="#AF3F00"/>
  <path d="M43.8135 31.3204V37.6801L35.7064 28.1373V22.0264L43.8135 31.3204Z" fill="#FF5400"/>
  <path d="M35.7065 22.0264L35.7049 28.1373L30.7292 33.3471V27.2394L35.7065 22.0264Z" fill="#AF3F00"/>
  <path d="M21.9069 16.5645L30.7293 27.2393V33.347L21.9069 22.6803V16.5645Z" fill="#FF5400"/>
</svg>