<svg width="934" height="290" viewBox="0 0 934 290" fill="none" xmlns="http://www.w3.org/2000/svg">
<path d="M65.3084 31.6204C64.6526 26.2247 62.0474 22.0423 57.4928 19.0734C52.9382 16.1044 47.3584 14.6301 40.7533 14.6504C35.9238 14.6652 31.7003 15.4594 28.083 17.0331C24.5012 18.6066 21.7024 20.7637 19.6866 23.5042C17.7064 26.2447 16.7217 29.355 16.7324 32.8351C16.7413 35.747 17.4415 38.2484 18.8329 40.3393C20.2596 42.3946 22.076 44.1113 24.282 45.4895C26.4878 46.8322 28.7995 47.9437 31.217 48.824C33.6343 49.6689 35.8559 50.3545 37.8817 50.881L48.9704 53.8298C51.8136 54.5668 54.9772 55.5869 58.4614 56.8902C61.981 58.1933 65.3423 59.9763 68.5453 62.2391C71.7837 64.4664 74.4559 67.3346 76.5619 70.8438C78.6678 74.353 79.7287 78.6644 79.7444 83.778C79.7625 89.6728 78.2342 95.0043 75.1593 99.7723C72.12 104.54 67.6572 108.336 61.771 111.159C55.9203 113.983 48.8046 115.407 40.4239 115.433C32.6115 115.457 25.8427 114.217 20.1177 111.714C14.4281 109.21 9.94289 105.708 6.662 101.208C3.41661 96.708 1.57168 91.4757 1.1272 85.5112L14.7635 85.4692C15.1313 89.5875 16.5267 92.9923 18.9498 95.6837C21.4082 98.3395 24.5038 100.319 28.2365 101.621C32.0046 102.888 36.0549 103.515 40.3872 103.501C45.4298 103.486 49.955 102.655 53.9627 101.009C57.9704 99.3279 61.1415 97.0099 63.4762 94.0553C65.8108 91.0652 66.972 87.5815 66.9597 83.6042C66.9486 79.9821 65.9275 77.0378 63.8963 74.7713C61.8652 72.5048 59.1962 70.6664 55.8893 69.2561C52.5824 67.8458 49.0097 66.6139 45.1712 65.5603L31.7362 61.7664C23.2059 59.3423 16.4481 55.8652 11.4625 51.3351C6.47698 46.8049 3.9729 40.8644 3.9503 33.5136C3.93152 27.4057 5.56642 22.0739 8.85498 17.5183C12.179 12.9271 16.6424 9.36225 22.2455 6.82371C27.8839 4.24954 34.1832 2.95176 41.1434 2.93036C48.1746 2.90874 54.4284 4.15017 59.9049 6.65465C65.3813 9.12362 69.7241 12.5194 72.9335 16.8419C76.1783 21.1643 77.898 26.0774 78.0924 31.5811L65.3084 31.6204ZM145.055 113.194L144.719 4.10339L181.58 3.99006C190.138 3.96375 197.139 5.48698 202.581 8.55975C208.059 11.5969 212.12 15.7215 214.764 20.9336C217.408 26.1456 218.74 31.9654 218.76 38.393C218.78 44.8205 217.484 50.6661 214.872 55.9299C212.296 61.1935 208.296 65.3961 202.872 68.5378C197.449 71.644 190.493 73.2101 182.006 73.2362L155.586 73.3175L155.55 61.5988L181.544 61.5189C187.403 61.5008 192.105 60.4743 195.65 58.4392C199.195 56.4042 201.761 53.6619 203.349 50.2124C204.971 46.7273 205.776 42.8008 205.763 38.4329C205.749 34.065 204.921 30.1613 203.276 26.7218C201.668 23.2821 199.067 20.5912 195.475 18.6491C191.882 16.6715 187.12 15.6918 181.19 15.7101L157.966 15.7815L158.265 113.153L145.055 113.194ZM283.769 112.767L283.434 3.67691L349.271 3.47449L349.307 15.1932L296.68 15.355L296.793 52.2156L346.012 52.0643L346.048 63.783L296.829 63.9343L296.943 101.008L350.423 100.844L350.459 112.562L283.769 112.767ZM504.47 37.0884L491.26 37.129C490.467 33.3317 489.089 29.9979 487.127 27.1275C485.201 24.2569 482.85 21.8494 480.074 19.9048C477.333 17.9246 474.293 16.4424 470.952 15.4584C467.61 14.4743 464.129 13.9879 460.507 13.999C453.902 14.0193 447.923 15.7067 442.571 19.0613C437.255 22.4157 433.026 27.3471 429.886 33.8553C426.781 40.3635 425.243 48.3406 425.272 57.7865C425.301 67.2325 426.888 75.2 430.033 81.6889C433.213 88.1777 437.472 93.083 442.809 96.4047C448.181 99.7262 454.17 101.377 460.775 101.357C464.397 101.345 467.876 100.838 471.211 99.833C474.546 98.8284 477.578 97.3454 480.306 95.3838C483.07 93.3867 485.406 90.947 487.315 88.0647C489.259 85.1467 490.616 81.8045 491.386 78.0379L504.596 77.9973C503.618 83.5756 501.823 88.5705 499.208 92.982C496.594 97.3934 493.339 101.15 489.442 104.251C485.545 107.317 481.167 109.657 476.306 111.27C471.482 112.883 466.317 113.698 460.813 113.714C451.509 113.743 443.228 111.496 435.97 106.973C428.712 102.449 422.992 96.004 418.812 87.6361C414.631 79.2682 412.523 69.3315 412.488 57.8258C412.452 46.3202 414.499 36.3707 418.628 27.9773C422.757 19.5839 428.437 13.1033 435.667 8.53559C442.898 3.96788 451.165 1.66972 460.469 1.64112C465.973 1.62419 471.142 2.40731 475.977 3.99047C480.847 5.57351 485.239 7.90377 489.155 10.9812C493.071 14.0232 496.349 17.7418 498.991 22.1371C501.632 26.4969 503.458 31.4807 504.47 37.0884ZM563.282 14.5353L563.246 2.81661L645.063 2.56506L645.099 14.2837L610.796 14.3892L611.095 111.761L597.885 111.802L597.585 14.4298L563.282 14.5353ZM709.287 111.459L708.951 2.36863L745.812 2.2553C754.334 2.2291 761.335 3.66355 766.812 6.55865C772.29 9.41824 776.35 13.3653 778.994 18.3998C781.637 23.4343 782.969 29.1653 782.988 35.5929C783.008 42.0204 781.712 47.724 779.099 52.7036C776.487 57.6833 772.468 61.6019 767.044 64.4595C761.619 67.2816 754.681 68.7056 746.229 68.7316L716.4 68.8233L716.363 56.8916L745.766 56.8012C751.59 56.7832 756.275 55.9166 759.821 54.2011C763.402 52.4855 765.987 50.0628 767.576 46.9329C769.199 43.7674 770.005 40.0007 769.991 35.6328C769.978 31.2649 769.149 27.45 767.506 24.188C765.862 20.926 763.244 18.4127 759.652 16.6482C756.06 14.8481 751.316 13.9572 745.422 13.9753L722.197 14.0467L722.497 111.418L709.287 111.459ZM760.485 62.2957L787.482 111.219L772.141 111.266L745.57 62.3416L760.485 62.2957ZM853.208 111.017L839.358 111.059L879.079 1.84556L892.716 1.80363L933.108 110.771L919.258 110.813L886.377 19.0817L885.524 19.0843L853.208 111.017ZM858.19 68.3874L914.014 68.2157L914.05 79.9344L858.226 80.1061L858.19 68.3874ZM192.394 212.049C191.211 208.466 189.656 205.257 187.73 202.422C185.839 199.551 183.576 197.108 180.942 195.092C178.344 193.075 175.392 191.54 172.086 190.485C168.78 189.429 165.156 188.908 161.215 188.92C154.752 188.94 148.88 190.627 143.599 193.981C138.318 197.336 134.125 202.267 131.02 208.775C127.915 215.283 126.377 223.26 126.406 232.706C126.435 242.152 128.04 250.12 131.22 256.608C134.401 263.097 138.695 268.002 144.103 271.324C149.511 274.645 155.588 276.296 162.335 276.275C168.585 276.256 174.086 274.907 178.836 272.229C183.622 269.516 187.339 265.704 189.987 260.796C192.67 255.851 194.002 250.041 193.982 243.365L198.032 244.205L165.22 244.306L165.184 232.587L206.732 232.459L206.768 244.178C206.796 253.162 204.902 260.981 201.087 267.633C197.308 274.285 192.068 279.451 185.368 283.129C178.703 286.772 171.038 288.606 162.373 288.633C152.714 288.663 144.22 286.416 136.891 281.893C129.597 277.37 123.895 270.924 119.786 262.556C115.712 254.188 113.657 244.251 113.622 232.746C113.595 224.116 114.726 216.354 117.013 209.457C119.335 202.525 122.619 196.62 126.866 191.742C131.112 186.864 136.143 183.12 141.959 180.51C147.775 177.9 154.181 176.584 161.177 176.562C166.929 176.544 172.294 177.398 177.271 179.123C182.283 180.812 186.748 183.231 190.664 186.379C194.615 189.492 197.911 193.228 200.552 197.588C203.194 201.912 205.019 206.719 206.03 212.007L192.394 212.049ZM273.025 286.801L272.689 177.711L285.899 177.67L286.199 275.042L336.909 274.886L336.945 286.605L273.025 286.801ZM488.528 231.593C488.564 243.099 486.517 253.048 482.388 261.441C478.259 269.835 472.579 276.315 465.349 280.883C458.119 285.451 449.851 287.749 440.548 287.778C431.244 287.806 422.962 285.559 415.704 281.036C408.446 276.513 402.727 270.067 398.546 261.699C394.365 253.331 392.257 243.395 392.222 231.889C392.187 220.383 394.233 210.434 398.363 202.04C402.492 193.647 408.171 187.166 415.402 182.599C422.632 178.031 430.899 175.733 440.203 175.704C449.507 175.676 457.788 177.923 465.046 182.446C472.304 186.969 478.024 193.415 482.204 201.783C486.385 210.15 488.493 220.087 488.528 231.593ZM475.744 231.632C475.715 222.186 474.111 214.219 470.93 207.73C467.785 201.241 463.526 196.336 458.154 193.014C452.817 189.693 446.846 188.042 440.241 188.062C433.636 188.082 427.657 189.77 422.305 193.124C416.989 196.479 412.761 201.41 409.62 207.918C406.515 214.427 404.977 222.404 405.006 231.85C405.035 241.296 406.622 249.263 409.767 255.752C412.948 262.241 417.206 267.146 422.543 270.468C427.916 273.789 433.904 275.44 440.51 275.42C447.115 275.399 453.075 273.712 458.392 270.358C463.744 267.003 467.972 262.072 471.077 255.564C474.218 249.055 475.773 241.078 475.744 231.632ZM554.408 285.936L554.073 176.846L592.212 176.728C599.811 176.705 606.083 178 611.027 180.612C615.971 183.189 619.657 186.676 622.086 191.072C624.514 195.432 625.736 200.276 625.752 205.603C625.767 210.29 624.944 214.163 623.285 217.223C621.66 220.282 619.502 222.703 616.808 224.487C614.15 226.271 611.26 227.593 608.138 228.455L608.141 229.521C611.48 229.723 614.839 230.885 618.219 233.005C621.6 235.126 624.432 238.171 626.717 242.141C629.002 246.111 630.153 250.973 630.171 256.726C630.188 262.194 628.96 267.117 626.488 271.492C624.015 275.868 620.102 279.342 614.748 281.915C609.393 284.489 602.419 285.788 593.826 285.815L554.408 285.936ZM567.582 274.177L593.79 274.096C602.419 274.07 608.539 272.382 612.151 269.033C615.798 265.648 617.615 261.558 617.6 256.764C617.589 253.071 616.637 249.665 614.745 246.546C612.854 243.391 610.165 240.878 606.679 239.007C603.193 237.1 599.071 236.154 594.312 236.168L567.466 236.251L567.582 274.177ZM567.43 224.745L591.933 224.67C595.91 224.658 599.495 223.865 602.686 222.293C605.912 220.721 608.462 218.511 610.336 215.664C612.245 212.818 613.193 209.477 613.181 205.641C613.167 200.847 611.485 196.786 608.137 193.459C604.788 190.095 599.492 188.425 592.248 188.447L567.319 188.524L567.43 224.745ZM699.94 285.489L686.091 285.531L725.812 176.318L739.449 176.276L779.841 285.243L765.991 285.286L733.11 193.554L732.257 193.556L699.94 285.489ZM704.923 242.859L760.747 242.688L760.783 254.406L704.959 254.578L704.923 242.859ZM840.333 285.057L839.997 175.967L853.207 175.926L853.507 273.298L904.217 273.142L904.253 284.86L840.333 285.057Z" fill="black"/>
</svg>
