<svg width="134" height="65" viewBox="0 0 134 65" fill="none" xmlns="http://www.w3.org/2000/svg">
<path d="M8.9501 57V60.85H7.3501V51.85H8.9501V55.3V55.55H9.2001H13.1001H13.3501V55.3V51.85H14.9501V60.85H13.3501V57V56.75H13.1001H9.2001H8.9501V57Z" fill="white" stroke="black" stroke-width="0.5"/>
<path d="M22.6503 57.2V60.85H21.0503V51.85H27.2503V53.15H22.9003H22.6503V53.4V55.6V55.85H22.9003H26.6503V56.95H22.9003H22.6503V57.2Z" fill="white" stroke="black" stroke-width="0.5"/>
<path d="M45.4383 58.2758L47.4829 51.85H49.9501V60.85H48.4501V54.3L47.9619 54.224L45.8174 60.95H44.5786L42.3366 54.4188L41.8501 54.5V60.95H40.3501V51.95H42.8532L44.9629 58.279L45.2056 59.0071L45.4383 58.2758Z" fill="white" stroke="black" stroke-width="0.5"/>
<path d="M61.6372 58.9209L61.5802 58.75H61.4H57.8H57.6198L57.5628 58.9209L56.9198 60.85H55.3621L58.7726 51.85H60.5274L63.9379 60.85H62.2802L61.6372 58.9209ZM60.9 57.75H61.25L61.1365 57.4189L59.9365 53.9189L59.7 53.2291L59.4635 53.9189L58.2635 57.4189L58.15 57.75H58.5H60.9Z" fill="white" stroke="black" stroke-width="0.5"/>
<path d="M74.0951 51.8498L74.0951 51.8499H74.0999C74.4608 51.8499 74.8275 51.9395 75.2296 52.04C75.4798 52.1253 75.7449 52.2984 76.0231 52.5767C76.1963 52.7498 76.3757 53.0145 76.5731 53.3103C76.6666 53.598 76.7499 53.9502 76.7499 54.1999C76.7499 54.7591 76.66 55.1138 76.3855 55.5713L76.3806 55.5795L76.3763 55.5881C76.2164 55.9079 75.8843 56.1749 75.3208 56.3627L74.6093 56.5999L75.3208 56.837C75.6188 56.9364 75.7682 57.0217 75.8231 57.0767L75.8518 57.1053L75.8881 57.1235C76.0009 57.1799 76.0682 57.2956 76.1763 57.5117C76.2753 57.7097 76.3499 57.8636 76.3499 58.0999C76.3499 58.2251 76.3791 58.3708 76.4021 58.4855C76.403 58.49 76.4039 58.4945 76.4048 58.4989C76.4314 58.6323 76.4499 58.7301 76.4499 58.7999V58.801V58.8022V58.8034V58.8045V58.8057V58.8069V58.808V58.8092V58.8103V58.8115V58.8126V58.8138V58.8149V58.8161V58.8172V58.8183V58.8195V58.8206V58.8217V58.8229V58.824V58.8251V58.8262V58.8274V58.8285V58.8296V58.8307V58.8318V58.8329V58.834V58.8351V58.8363V58.8374V58.8385V58.8396V58.8407V58.8417V58.8428V58.8439V58.845V58.8461V58.8472V58.8483V58.8494V58.8504V58.8515V58.8526V58.8537V58.8547V58.8558V58.8569V58.8579V58.859V58.8601V58.8611V58.8622V58.8632V58.8643V58.8653V58.8664V58.8674V58.8685V58.8695V58.8706V58.8716V58.8727V58.8737V58.8747V58.8758V58.8768V58.8778V58.8789V58.8799V58.8809V58.882V58.883V58.884V58.885V58.886V58.8871V58.8881V58.8891V58.8901V58.8911V58.8921V58.8931V58.8941V58.8952V58.8962V58.8972V58.8982V58.8992V58.9002V58.9012V58.9022V58.9031V58.9041V58.9051V58.9061V58.9071V58.9081V58.9091V58.9101V58.9111V58.912V58.913V58.914V58.915V58.9159V58.9169V58.9179V58.9189V58.9198V58.9208V58.9218V58.9227V58.9237V58.9247V58.9256V58.9266V58.9276V58.9285V58.9295V58.9304V58.9314V58.9323V58.9333V58.9343V58.9352V58.9362V58.9371V58.9381V58.939V58.9399V58.9409V58.9418V58.9428V58.9437V58.9447V58.9456V58.9465V58.9475V58.9484V58.9493V58.9503V58.9512V58.9521V58.9531V58.954V58.9549V58.9559V58.9568V58.9577V58.9586V58.9596V58.9605V58.9614V58.9623V58.9633V58.9642V58.9651V58.966V58.9669V58.9679V58.9688V58.9697V58.9706V58.9715V58.9724V58.9733V58.9743V58.9752V58.9761V58.977V58.9779V58.9788V58.9797V58.9806V58.9815V58.9824V58.9833V58.9842V58.9851V58.986V58.9869V58.9878V58.9887V58.9896V58.9905V58.9914V58.9923V58.9932V58.9941V58.995V58.9959V58.9968V58.9977V58.9986V58.9995V59.0004V59.0013V59.0022V59.0031V59.004V59.0049V59.0057V59.0066V59.0075V59.0084V59.0093V59.0102V59.0111V59.012V59.0129V59.0137V59.0146V59.0155V59.0164V59.0173V59.0182V59.0191V59.0199V59.0208V59.0217V59.0226V59.0235V59.0244V59.0252V59.0261V59.027V59.0279V59.0288V59.0296V59.0305V59.0314V59.0323V59.0332V59.034V59.0349V59.0358V59.0367V59.0376V59.0384V59.0393V59.0402V59.0411V59.042V59.0428V59.0437V59.0446V59.0455V59.0464V59.0472V59.0481V59.049V59.0499V59.0508V59.0516V59.0525V59.0534V59.0543V59.0552V59.056V59.0569V59.0578V59.0587V59.0595V59.0604V59.0613V59.0622V59.0631V59.0639V59.0648V59.0657V59.0666V59.0675V59.0683V59.0692V59.0701V59.071V59.0719V59.0728V59.0736V59.0745V59.0754V59.0763V59.0772V59.0781V59.0789V59.0798V59.0807V59.0816V59.0825V59.0834V59.0842V59.0851V59.086V59.0869V59.0878V59.0887V59.0896V59.0905V59.0913V59.0922V59.0931V59.094V59.0949V59.0958V59.0967V59.0976V59.0985V59.0994V59.1003V59.1011V59.102V59.1029V59.1038V59.1047V59.1056V59.1065V59.1074V59.1083V59.1092V59.1101V59.111V59.1119V59.1128V59.1137V59.1146V59.1155V59.1164V59.1173V59.1182V59.1191V59.12V59.121V59.1219V59.1228V59.1237V59.1246V59.1255V59.1264V59.1273V59.1282V59.1292V59.1301V59.131V59.1319V59.1328V59.1337V59.1347V59.1356V59.1365V59.1374V59.1383V59.1393V59.1402V59.1411V59.142V59.143V59.1439V59.1448V59.1457V59.1467V59.1476V59.1485V59.1495V59.1504V59.1513V59.1523V59.1532V59.1542V59.1551V59.156V59.157V59.1579V59.1589V59.1598V59.1608V59.1617V59.1627V59.1636V59.1646V59.1655V59.1665V59.1674V59.1684V59.1693V59.1703V59.1712V59.1722V59.1732V59.1741V59.1751V59.176V59.177V59.178V59.1789V59.1799V59.1809V59.1819V59.1828V59.1838V59.1848V59.1858V59.1867V59.1877V59.1887V59.1897V59.1907V59.1917V59.1926V59.1936V59.1946V59.1956V59.1966V59.1976V59.1986V59.1996V59.2006V59.2016V59.2026V59.2036V59.2046V59.2056V59.2066V59.2076V59.2086V59.2096V59.2107V59.2117V59.2127V59.2137V59.2147V59.2157V59.2168V59.2178V59.2188V59.2198V59.2209V59.2219V59.2229V59.224V59.225V59.2261V59.2271V59.2281V59.2292V59.2302V59.2313V59.2323V59.2334V59.2344V59.2355V59.2365V59.2376V59.2386V59.2397V59.2408V59.2418V59.2429V59.244V59.245V59.2461V59.2472V59.2482V59.2493V59.2504V59.2515V59.2526V59.2537V59.2547V59.2558V59.2569V59.258V59.2591V59.2602V59.2613V59.2624V59.2635V59.2646V59.2657V59.2668V59.2679V59.269V59.2702V59.2713V59.2724V59.2735V59.2746V59.2758V59.2769V59.278V59.2791V59.2803V59.2814V59.2826V59.2837V59.2848V59.286V59.2871V59.2883V59.2894V59.2906V59.2917V59.2929V59.294V59.2952V59.2964V59.2975V59.2987V59.2999V59.301V59.3022V59.3034V59.3046V59.3057V59.3069V59.3081V59.3093V59.3104V59.3116V59.3128V59.3139V59.3151V59.3163V59.3175V59.3186V59.3198V59.321V59.3221V59.3233V59.3245V59.3257V59.3268V59.328V59.3292V59.3303V59.3315V59.3327V59.3339V59.335V59.3362V59.3374V59.3385V59.3397V59.3409V59.3421V59.3432V59.3444V59.3456V59.3468V59.3479V59.3491V59.3503V59.3514V59.3526V59.3538V59.355V59.3561V59.3573V59.3585V59.3596V59.3608V59.362V59.3632V59.3643V59.3655V59.3667V59.3678V59.369V59.3702V59.3714V59.3725V59.3737V59.3749V59.376V59.3772V59.3784V59.3796V59.3807V59.3819V59.3831V59.3843V59.3854V59.3866V59.3878V59.3889V59.3901V59.3913V59.3925V59.3936V59.3948V59.396V59.3971V59.3983V59.3995V59.4007V59.4018V59.403V59.4042V59.4053V59.4065V59.4077V59.4089V59.41V59.4112V59.4124V59.4135V59.4147V59.4159V59.4171V59.4182V59.4194V59.4206V59.4218V59.4229V59.4241V59.4253V59.4264V59.4276V59.4288V59.43V59.4311V59.4323V59.4335V59.4346V59.4358V59.437V59.4382V59.4393V59.4405V59.4417V59.4428V59.444V59.4452V59.4464V59.4475V59.4487V59.4499V59.451V59.4522V59.4534V59.4546V59.4557V59.4569V59.4581V59.4593V59.4604V59.4616V59.4628V59.4639V59.4651V59.4663V59.4675V59.4686V59.4698V59.471V59.4721V59.4733V59.4745V59.4757V59.4768V59.478V59.4792V59.4803V59.4815V59.4827V59.4839V59.485V59.4862V59.4874V59.4885V59.4897V59.4909V59.4921V59.4932V59.4944V59.4956V59.4968V59.4979V59.4991V59.5003V59.5014V59.5026V59.5038V59.505V59.5061V59.5073V59.5085V59.5096V59.5108V59.512V59.5132V59.5143V59.5155V59.5167V59.5178V59.519V59.5202V59.5214V59.5225V59.5237V59.5249V59.526V59.5272V59.5284V59.5296V59.5307V59.5319V59.5331V59.5343V59.5354V59.5366V59.5378V59.5389V59.5401V59.5413V59.5425V59.5436V59.5448V59.546V59.5471V59.5483V59.5495V59.5507V59.5518V59.553V59.5542V59.5553V59.5565V59.5577V59.5589V59.56V59.5612V59.5624V59.5635V59.5647V59.5659V59.5671V59.5682V59.5694V59.5706V59.5718V59.5729V59.5741V59.5753V59.5764V59.5776V59.5788V59.58V59.5811V59.5823V59.5835V59.5846V59.5858V59.587V59.5882V59.5893V59.5905V59.5917V59.5928V59.594V59.5952V59.5964V59.5975V59.5987V59.5999V59.6011V59.6022V59.6034V59.6046V59.6057V59.6069V59.6081V59.6093V59.6104V59.6116V59.6128V59.6139V59.6151V59.6163V59.6175V59.6186V59.6198V59.621V59.6221V59.6233V59.6245V59.6257V59.6268V59.628V59.6292V59.6303V59.6315V59.6327V59.6339V59.635V59.6362V59.6374V59.6386V59.6397V59.6409V59.6421V59.6432V59.6444V59.6456V59.6468V59.6479V59.6491V59.6503V59.6514V59.6526V59.6538V59.655V59.6561V59.6573V59.6585V59.6596V59.6608V59.662V59.6632V59.6643V59.6655V59.6667V59.6678V59.669V59.6702V59.6714V59.6725V59.6737V59.6749V59.6761V59.6772V59.6784V59.6796V59.6807V59.6819V59.6831V59.6843V59.6854V59.6866V59.6878V59.6889V59.6901V59.6913V59.6925V59.6936V59.6948V59.696V59.6971V59.6983V59.6995V59.7007V59.7018V59.703V59.7042V59.7053V59.7065V59.7077V59.7089V59.71V59.7112V59.7124V59.7136V59.7147V59.7159V59.7171V59.7182V59.7194V59.7206V59.7218V59.7229V59.7241V59.7253V59.7264V59.7276V59.7288V59.73V59.7311V59.7323V59.7335V59.7346V59.7358V59.737V59.7382V59.7393V59.7405V59.7417V59.7428V59.744V59.7452V59.7464V59.7475V59.7487V59.7499V59.7511V59.7522V59.7534V59.7546V59.7557V59.7569V59.7581V59.7593V59.7604V59.7616V59.7628V59.7639V59.7651V59.7663V59.7675V59.7686V59.7698V59.771V59.7721V59.7733V59.7745V59.7757V59.7768V59.778V59.7792V59.7803V59.7815V59.7827V59.7839V59.785V59.7862V59.7874V59.7886V59.7897V59.7909V59.7921V59.7932V59.7944V59.7956V59.7968V59.7979V59.7991V59.8003V59.8014V59.8026V59.8038V59.805V59.8061V59.8073V59.8085V59.8096V59.8108V59.812V59.8132V59.8143V59.8155V59.8167V59.8178V59.819V59.8202V59.8214V59.8225V59.8237V59.8249V59.8261V59.8272V59.8284V59.8296V59.8307V59.8319V59.8331V59.8343V59.8354V59.8366V59.8378V59.8389V59.8401V59.8413V59.8425V59.8436V59.8448V59.846V59.8471V59.8483V59.8495V59.8507V59.8518V59.853V59.8542V59.8553V59.8565V59.8577V59.8589V59.86V59.8612V59.8624V59.8636V59.8647V59.8659V59.8671V59.8682V59.8694V59.8706V59.8718V59.8729V59.8741V59.8753V59.8764V59.8776V59.8788V59.88V59.8811V59.8823V59.8835V59.8846V59.8858V59.887V59.8882V59.8893V59.8905V59.8917V59.8928V59.894V59.8952V59.8964V59.8975V59.8987V59.8999C76.4499 60.0311 76.4814 60.157 76.5048 60.2502C76.5057 60.2537 76.5065 60.2571 76.5074 60.2605C76.5338 60.3664 76.5499 60.436 76.5499 60.4999C76.5499 60.5852 76.5628 60.6697 76.5849 60.7499H75.1839C75.11 60.4936 75.0499 60.1938 75.0499 59.8999C75.0499 59.6843 75.0233 59.4712 74.9988 59.2758L74.998 59.2689C74.9726 59.0662 74.9499 58.8817 74.9499 58.6999V58.6751L74.945 58.6508C74.8953 58.4022 74.8416 58.156 74.757 57.9445C74.6739 57.7367 74.5535 57.5428 74.3587 57.4056C74.218 57.2733 74.0295 57.1874 73.8268 57.1333C73.6128 57.0763 73.3651 57.0499 73.0999 57.0499H70.9999H70.7499V57.2999V60.7499H69.1499V51.7547L74.0951 51.8498ZM73.5499 56.2499V56.141C73.9569 56.1105 74.2491 56.0009 74.5386 55.8079L74.5592 55.7942L74.5767 55.7767C74.8204 55.5329 75.0499 55.0705 75.0499 54.5999C75.0499 54.3367 75.0242 54.1015 74.9457 53.8976C74.8672 53.6933 74.74 53.5316 74.5583 53.4053C74.4177 53.2731 74.2293 53.1873 74.0268 53.1333C73.8128 53.0763 73.5651 53.0499 73.2999 53.0499H70.9999H70.7499V53.2999V55.9999V56.2499H70.9999H73.2999H73.5499Z" fill="white" stroke="black" stroke-width="0.5"/>
<path d="M84.2499 51.8622V55.6V56.2384L84.6834 55.7697L88.3092 51.85H90.2076L86.9208 55.2256L86.7758 55.3745L86.8958 55.5443L90.717 60.95H88.7328L85.9072 56.7602L85.7376 56.5087L85.5231 56.7232L84.3231 57.9232L84.2499 57.9964V58.1V60.95H82.6499V51.9384L84.2499 51.8622Z" fill="white" stroke="black" stroke-width="0.5"/>
<path d="M97.9003 59.55H102.75V60.85H96.0503V51.85H102.65V53.15H97.9003H97.6503V53.4V55.4V55.65H97.9003H102.25V56.75H97.9003H97.6503V57V59.3V59.55H97.9003Z" fill="white" stroke="black" stroke-width="0.5"/>
<path d="M110.3 53.15H107.75V51.85H115.05V53.15H112.4H112.15V53.4V60.95H110.55V53.4V53.15H110.3Z" fill="white" stroke="black" stroke-width="0.5"/>
<path d="M125.677 59.2767L125.706 59.248L125.724 59.2117C125.727 59.2046 125.731 59.1973 125.735 59.19C125.827 59.0065 125.95 58.76 125.95 58.4999C125.95 58.1464 125.832 57.8783 125.677 57.7232C125.448 57.4944 125.218 57.3791 125.019 57.2799L125.012 57.2763L124.996 57.2684L124.979 57.2628L124.529 57.1128L124.079 56.9628C123.924 56.911 123.745 56.8598 123.572 56.8105L123.569 56.8095C123.392 56.7591 123.223 56.7107 123.079 56.6628L123.07 56.6597L123.061 56.6574C122.671 56.5599 122.379 56.4626 122.079 56.3628C121.817 56.2754 121.546 56.097 121.239 55.8919C120.992 55.7272 120.822 55.4762 120.737 55.2209L120.727 55.1891L120.708 55.1613C120.558 54.9365 120.55 54.6215 120.55 54.1999C120.55 53.7385 120.641 53.3768 120.824 53.0117C121.002 52.6562 121.27 52.3875 121.539 52.2079C121.821 52.0198 122.195 51.834 122.561 51.7425C122.957 51.6433 123.432 51.5499 123.8 51.5499C124.27 51.5499 124.747 51.6443 125.14 51.7425L125.139 51.7427L125.151 51.7451C125.613 51.8374 125.983 52.0222 126.262 52.2079C126.511 52.374 126.786 52.7311 126.977 53.1117C127.124 53.4061 127.214 53.7691 127.241 54.1499H125.729C125.69 53.9207 125.603 53.7459 125.528 53.5957L125.524 53.5881C125.466 53.473 125.402 53.3731 125.314 53.2857C125.227 53.1982 125.127 53.1339 125.012 53.0763C125.005 53.0727 124.998 53.0691 124.99 53.0654C124.807 52.9735 124.56 52.8499 124.3 52.8499C124.23 52.8499 124.133 52.8315 123.999 52.8048C123.995 52.8039 123.99 52.803 123.986 52.8021C123.871 52.7791 123.725 52.7499 123.6 52.7499C123.597 52.7499 123.593 52.7499 123.59 52.7499C123.498 52.7499 123.405 52.7499 123.309 52.7658C123.219 52.7808 123.134 52.8084 123.038 52.8522C122.919 52.8613 122.824 52.8962 122.738 52.9388C122.697 52.9598 122.655 52.9836 122.619 53.0044C122.616 53.0062 122.613 53.0081 122.61 53.0099C122.569 53.0332 122.531 53.0549 122.488 53.0763L122.452 53.0945L122.423 53.1232C122.411 53.1355 122.391 53.1519 122.36 53.1761C122.352 53.182 122.343 53.189 122.332 53.1966C122.309 53.2144 122.28 53.2356 122.257 53.2547C122.222 53.2827 122.177 53.321 122.139 53.3673C122.117 53.394 122.089 53.4345 122.07 53.4869C122.003 53.5825 121.977 53.6916 121.965 53.7771C121.95 53.8824 121.95 53.9975 121.95 54.0914L121.95 54.0999C121.95 54.1033 121.95 54.1067 121.95 54.1102C121.95 54.202 121.95 54.2953 121.966 54.391C121.984 54.4965 122.018 54.5955 122.077 54.7117L122.095 54.748L122.123 54.7767L122.124 54.7775C122.229 54.8825 122.352 55.0054 122.588 55.1235C122.813 55.2359 123.134 55.3411 123.54 55.4425C123.621 55.4629 123.705 55.4829 123.791 55.5034C124.141 55.587 124.522 55.6781 124.907 55.832L124.952 55.8499H125C125.059 55.8499 125.129 55.8647 125.234 55.8996C125.282 55.9158 125.334 55.9347 125.394 55.9566L125.406 55.9613C125.471 55.9848 125.542 56.0109 125.621 56.0371C125.924 56.1379 126.193 56.229 126.462 56.4079C126.734 56.5896 127.01 56.8661 127.192 57.1386C127.352 57.3784 127.45 57.8198 127.45 58.2999C127.45 58.6567 127.361 59.0187 127.177 59.3881C126.987 59.7666 126.809 60.0307 126.45 60.2999L126.436 60.3106L126.423 60.3232C126.165 60.5817 125.813 60.7625 125.351 60.8548L125.329 60.8593L125.307 60.8678C124.861 61.0465 124.313 61.0499 123.7 61.0499C123.229 61.0499 122.754 60.9557 122.249 60.8548C121.792 60.7633 121.426 60.5817 121.05 60.2999C120.67 60.015 120.409 59.7486 120.232 59.3071L120.228 59.2974L120.224 59.2881C120.073 58.9858 119.981 58.6088 119.957 58.1499H121.451C121.453 58.2545 121.456 58.3539 121.464 58.4457C121.477 58.6074 121.506 58.7696 121.577 58.9117C121.701 59.1601 121.94 59.3993 122.188 59.5235L122.19 59.5245C122.391 59.625 122.604 59.7315 122.921 59.8371C123.26 59.9499 123.494 59.9499 123.793 59.9499H123.8H123.801H123.803H123.804H123.805H123.806H123.807H123.808H123.81H123.811H123.812H123.813H123.814H123.815H123.817H123.818H123.819H123.82H123.821H123.822H123.824H123.825H123.826H123.827H123.828H123.829H123.831H123.832H123.833H123.834H123.835H123.837H123.838H123.839H123.84H123.841H123.842H123.844H123.845H123.846H123.847H123.848H123.849H123.851H123.852H123.853H123.854H123.855H123.856H123.858H123.859H123.86H123.861H123.862H123.863H123.865H123.866H123.867H123.868H123.869H123.871H123.872H123.873H123.874H123.875H123.876H123.878H123.879H123.88H123.881H123.882H123.883H123.885H123.886H123.887H123.888H123.889H123.89H123.892H123.893H123.894H123.895H123.896H123.897H123.899H123.9H123.901H123.902H123.903H123.904H123.906H123.907H123.908H123.909H123.91H123.912H123.913H123.914H123.915H123.916H123.917H123.919H123.92H123.921H123.922H123.923H123.924H123.926H123.927H123.928H123.929H123.93H123.931H123.933H123.934H123.935H123.936H123.937H123.938H123.94H123.941H123.942H123.943H123.944H123.946H123.947H123.948H123.949H123.95H123.951H123.953H123.954H123.955H123.956H123.957H123.958H123.96H123.961H123.962H123.963H123.964H123.965H123.967H123.968H123.969H123.97H123.971H123.972H123.974H123.975H123.976H123.977H123.978H123.979H123.981H123.982H123.983H123.984H123.985H123.987H123.988H123.989H123.99H123.991H123.992H123.994H123.995H123.996H123.997H123.998H123.999H124.001H124.002H124.003H124.004H124.005H124.006H124.008H124.009H124.01H124.011H124.012H124.013H124.015H124.016H124.017H124.018H124.019H124.021H124.022H124.023H124.024H124.025H124.026H124.028H124.029H124.03H124.031H124.032H124.033H124.035H124.036H124.037H124.038H124.039H124.04H124.042H124.043H124.044H124.045H124.046H124.047H124.049H124.05H124.051H124.052H124.053H124.054H124.056H124.057H124.058H124.059H124.06H124.062H124.063H124.064H124.065H124.066H124.067H124.069H124.07H124.071H124.072H124.073H124.074H124.076H124.077H124.078H124.079H124.08H124.081H124.083H124.084H124.085H124.086H124.087H124.088H124.09H124.091H124.092H124.093H124.094H124.096H124.097H124.098H124.099H124.1H124.101H124.103H124.104H124.105H124.106H124.107H124.108H124.11H124.111H124.112H124.113H124.114H124.115H124.117H124.118H124.119H124.12H124.121H124.122H124.124H124.125H124.126H124.127H124.128H124.129H124.131H124.132H124.133H124.134H124.135H124.137H124.138H124.139H124.14H124.141H124.142H124.144H124.145H124.146H124.147H124.148H124.149H124.151H124.152H124.153H124.154H124.155H124.156H124.158H124.159H124.16H124.161H124.162H124.163H124.165H124.166H124.167H124.168H124.169H124.171H124.172H124.173H124.174H124.175H124.176H124.178H124.179H124.18H124.181H124.182H124.183H124.185H124.186H124.187H124.188H124.189H124.19H124.192H124.193H124.194H124.195H124.196H124.197H124.199H124.2H124.201H124.202H124.203H124.204H124.206H124.207H124.208H124.209H124.21H124.212H124.213H124.214H124.215H124.216H124.217H124.219H124.22H124.221H124.222H124.223H124.224H124.226H124.227H124.228H124.229H124.23H124.231H124.233H124.234H124.235H124.236H124.237H124.238H124.24H124.241H124.242H124.243H124.244H124.246H124.247H124.248H124.249H124.25H124.251H124.253H124.254H124.255H124.256H124.257H124.258H124.26H124.261H124.262H124.263H124.264H124.265H124.267H124.268H124.269H124.27H124.271H124.272H124.274H124.275H124.276H124.277H124.278H124.279H124.281H124.282H124.283H124.284H124.285H124.287H124.288H124.289H124.29H124.291H124.292H124.294H124.295H124.296H124.297H124.298H124.299H124.301H124.302H124.303H124.304H124.305H124.306H124.308H124.309H124.31H124.311H124.312H124.313H124.315H124.316H124.317H124.318H124.319H124.321H124.322H124.323H124.324H124.325H124.326H124.328H124.329H124.33H124.331H124.332H124.333H124.335H124.336H124.337H124.338H124.339H124.34H124.342H124.343H124.344H124.345H124.346H124.347H124.349H124.35H124.351H124.352H124.353H124.354H124.356H124.357H124.358H124.359H124.36H124.362H124.363H124.364H124.365H124.366H124.367H124.369H124.37H124.371H124.372H124.373H124.374H124.376H124.377H124.378H124.379H124.38H124.381H124.383H124.384H124.385H124.386H124.387H124.388H124.39H124.391H124.392H124.393H124.394H124.396H124.397H124.398H124.399H124.4C124.66 59.9499 124.907 59.8264 125.09 59.7344C125.098 59.7308 125.105 59.7271 125.112 59.7235C125.348 59.6053 125.474 59.4798 125.667 59.2871L125.677 59.2767Z" fill="white" stroke="black" stroke-width="0.5"/>
<path d="M106.923 23.3767L107.1 23.5531L107.276 23.3772L127.45 3.30143V42.3499H119.85V22.2V21.5964L119.423 22.0232L112.723 28.7232L107.1 34.3464L86.8501 14.0964V3.3035L106.923 23.3767Z" fill="#CD0015" stroke="black" stroke-width="0.5"/>
<path d="M15.6499 25.3999V42.2499H7.6499V3.1499H15.6499V18.0999V18.3499H15.8999H31.6999H31.9499V18.0999V3.1499H40.0499V42.3499H31.9499V25.3999V25.1499H31.6999H15.8999H15.6499V25.3999Z" fill="white" stroke="black" stroke-width="0.5"/>
<path d="M55.1498 26.1999V42.3499H47.0498V3.1499H73.9498V9.9499H55.3998H55.1498V10.1999V19.3999V19.6499H55.3998H71.5498V25.9499H55.3998H55.1498V26.1999Z" fill="white" stroke="black" stroke-width="0.5"/>
<path d="M106.85 39.8964L89.0766 22.1232L88.6498 21.6964V22.2999V42.3499H81.0498V3.3035L88.7225 10.9762L88.723 10.9767L106.85 29.2031V39.8964Z" fill="white" stroke="black" stroke-width="0.5"/>
</svg>
